<svg xmlns="http://www.w3.org/2000/svg" version="1.1" xmlns:xlink="http://www.w3.org/1999/xlink" xmlns:svgjs="http://svgjs.dev/svgjs" viewBox="0 0 800 400"><path d="M79.82062530517578,275.3363342285156C88.6397590637207,247.68311818440756,114.34977595011394,111.80867004394531,132.7354278564453,109.41703796386719C151.1210797627767,107.02540588378906,201.7937297821045,249.7757797241211,190.13453674316406,260.9865417480469C178.47534370422363,272.19730377197266,74.43946329752605,189.53661600748697,62.780269622802734,176.68161010742188C51.12107594807943,163.82660420735678,101.1958179473877,182.3617375691732,120.17937469482422,183.85650634765625C139.16293144226074,185.3512751261393,157.2496223449707,198.9536616007487,176.68161010742188,185.6502227783203C196.11359786987305,172.34678395589194,208.81913248697916,118.08669535319011,236.77130126953125,104.03587341308594C264.7234700520833,89.98505147298177,335.42601521809894,86.84603881835938,344.3946228027344,101.34529113769531C353.3632303873698,115.84454345703125,306.8759231567383,165.1718978881836,290.58294677734375,191.03138732910156C274.2899703979492,216.89087677001953,236.77129109700522,246.33780161539713,246.6367645263672,256.5022277832031C256.5022379557292,266.6666539510091,332.58595021565753,252.76532491048178,349.7757873535156,252.0179443359375" fill="none" stroke-width="25" stroke="url(&quot;#SvgjsLinearGradient1000&quot;)" stroke-linecap="round" transform="matrix(1.269908131447266,0,0,1.269908131447266,-55.4413803260326,-49.55647102502516)"></path><defs><linearGradient id="SvgjsLinearGradient1000" gradientTransform="rotate(152, 0.5, 0.5)"><stop stop-color="hsl(162, 73%, 33%)" offset="0"></stop><stop stop-color="hsl(89, 73%, 48%)" offset="1"></stop></linearGradient></defs></svg>